<?xml version="1.0" encoding="utf-8"?>
<!-- Generator: Adobe Illustrator 24.0.3, SVG Export Plug-In . SVG Version: 6.00 Build 0)  -->
<svg version="1.1" id="Layer_1" xmlns="http://www.w3.org/2000/svg" xmlns:xlink="http://www.w3.org/1999/xlink" x="0px" y="0px"
	 viewBox="0 0 1440 334" style="enable-background:new 0 0 1440 334;" xml:space="preserve">
<style type="text/css">
	.Arched_x0020_Green{fill:url(#SVGID_1_);stroke:#FFFFFF;stroke-width:0.25;stroke-miterlimit:1;}
	.st0{fill:#727373;}
	.st1{fill:#721012;}
	.st2{fill:#A8A7A7;}
	.st3{fill:#891A1A;}
	.st4{fill:none;}
</style>
<linearGradient id="SVGID_1_" gradientUnits="userSpaceOnUse" x1="0" y1="549" x2="0.7071" y2="548.2929">
	<stop  offset="0" style="stop-color:#20AC4B"/>
	<stop  offset="0.9831" style="stop-color:#19361A"/>
</linearGradient>
<g>
	<g>
		<g>
			<path class="st0" d="M171.6,128.1v53.3h-32.1V37h139.3c38.6,0,53.4,14.1,53.4,34.9v21.3c0,20.7-14.7,34.9-53.4,34.9H171.6z
				 M300,71.7c0-8.6-6.8-13.3-21.2-13.3H171.6v48.4h107.2c14.5,0,21.2-4.7,21.2-13.3V71.7z"/>
			<path class="st0" d="M355.8,181.4V37h32.1v144.3H355.8z"/>
			<path class="st0" d="M629.8,181.4L448.5,69v112.3h-28V37h27.8l169.2,107.2V37h28v144.3H629.8z"/>
			<path class="st1" d="M906,181.4V80.3l-86.4,101.1h-26.3L706.6,80.5v100.9h-29.7V37h29.9l100.9,117.9L908.1,37h27.5v144.3H906z"/>
			<path class="st1" d="M1019.2,181.4c-38.6,0-53.4-14.1-53.4-34.9V71.9c0-20.7,14.7-34.9,53.4-34.9h112.3
				c38.6,0,53.4,14.1,53.4,34.9v74.6c0,20.7-14.7,34.9-53.4,34.9H1019.2z M1152.7,71.7c0-8.6-6.8-13.3-21.2-13.3h-112.3
				c-14.5,0-21.2,4.7-21.2,13.3v75c0,8.6,6.8,13.3,21.2,13.3h112.3c14.5,0,21.2-4.7,21.2-13.3V71.7z"/>
			<path class="st1" d="M1376.5,181.4l-39.8-64.4h-89.6v64.4H1215V37h144.4c38.6,0,53.4,14.1,53.4,34.9v10.3c0,18.7-11.8,32-42,34.4
				l40.1,64.8H1376.5z M1380.6,71.7c0-8.6-6.8-13.3-21.2-13.3h-112.3v37.3h112.3c14.5,0,21.2-4.7,21.2-13.3V71.7z"/>
		</g>
	</g>
	<rect x="38.6" y="187.9" class="st2" width="1387.4" height="96.2"/>
	<g>
		<g>
			<path class="st1" d="M165.7,268c-18.7,0-25.9-6-25.9-14.7v-31.4c0-8.7,7.1-14.7,25.9-14.7h66.4v9h-66.4c-7,0-10.3,2-10.3,5.6
				v31.6c0,3.6,3.3,5.6,10.3,5.6h66.4v9H165.7z"/>
			<path class="st1" d="M270.5,268c-18.7,0-25.9-6-25.9-14.7v-31.4c0-8.7,7.1-14.7,25.9-14.7H325c18.7,0,25.9,6,25.9,14.7v31.4
				c0,8.7-7.1,14.7-25.9,14.7H270.5z M335.3,221.7c0-3.6-3.3-5.6-10.3-5.6h-54.5c-7,0-10.3,2-10.3,5.6v31.6c0,3.6,3.3,5.6,10.3,5.6
				H325c7,0,10.3-2,10.3-5.6V221.7z"/>
			<path class="st1" d="M467,268l-88-47.3V268h-13.6v-60.8H379l82.1,45.2v-45.2h13.6V268H467z"/>
			<path class="st1" d="M490.9,268v-9h71.7c7,0,10.3-2,10.3-5.6v-7.7c0-3.6-3.3-5.6-10.3-5.6h-48.5c-18.7,0-25.9-6-25.9-14.7v-3.5
				c0-8.7,7.1-14.7,25.9-14.7h69.8v9h-69.8c-7,0-10.3,2-10.3,5.6v3.7c0,3.6,3.3,5.6,10.3,5.6h48.5c18.7,0,25.9,6,25.9,14.7v7.5
				c0,8.7-7.1,14.7-25.9,14.7H490.9z"/>
			<path class="st1" d="M636.9,268v-51.8h-43.2v-9h100.8v9h-42V268H636.9z"/>
			<path class="st1" d="M783.2,268l-19.3-27.1h-43.4V268h-15.6v-60.8h70c18.7,0,25.9,6,25.9,14.7v4.3c0,7.9-5.7,13.5-20.4,14.5
				l19.4,27.3H783.2z M785.2,221.7c0-3.6-3.3-5.6-10.3-5.6h-54.5v15.7h54.5c7,0,10.3-2,10.3-5.6V221.7z"/>
			<path class="st1" d="M838.9,268c-18.7,0-25.9-6-25.9-14.7v-46.1h15.6v46.2c0,3.6,3.3,5.6,10.3,5.6H890c7,0,10.3-2,10.3-5.6v-46.2
				h15.6v46.1c0,8.7-3.9,14.7-22.6,14.7H838.9z"/>
			<path class="st1" d="M956.1,268c-18.7,0-25.9-6-25.9-14.7v-31.4c0-8.7,7.1-14.7,25.9-14.7h66.4v9h-66.4c-7,0-10.3,2-10.3,5.6
				v31.6c0,3.6,3.3,5.6,10.3,5.6h66.4v9H956.1z"/>
			<path class="st1" d="M1073.9,268v-51.8h-43.2v-9h100.8v9h-42V268H1073.9z"/>
			<path class="st1" d="M1142.5,268v-60.8h15.6V268H1142.5z"/>
			<path class="st1" d="M1199.2,268c-18.7,0-25.9-6-25.9-14.7v-31.4c0-8.7,7.1-14.7,25.9-14.7h54.5c18.7,0,25.9,6,25.9,14.7v31.4
				c0,8.7-7.1,14.7-25.9,14.7H1199.2z M1264,221.7c0-3.6-3.3-5.6-10.3-5.6h-54.5c-7,0-10.3,2-10.3,5.6v31.6c0,3.6,3.3,5.6,10.3,5.6
				h54.5c7,0,10.3-2,10.3-5.6V221.7z"/>
			<path class="st1" d="M1395.7,268l-88-47.3V268h-13.6v-60.8h13.5l82.1,45.2v-45.2h13.6V268H1395.7z"/>
		</g>
	</g>
	<rect x="35" y="118.5" class="st3" width="88.5" height="62.8"/>
	<rect x="35" y="66" class="st3" width="88.5" height="46.4"/>
	<rect x="35" y="32.3" class="st3" width="88.5" height="27.7"/>
	<rect x="35" y="187.9" class="st0" width="88.5" height="96.2"/>
</g>
<rect class="st4" width="1440" height="334"/>
</svg>
